<svg width="72" height="12" viewBox="0 0 72 12" fill="none" xmlns="http://www.w3.org/2000/svg">
<path d="M5.42931 2.35624C5.60892 1.80345 6.39096 1.80345 6.57058 2.35624L7.21232 4.33132C7.29264 4.57853 7.52302 4.74591 7.78295 4.74591H9.85967C10.4409 4.74591 10.6826 5.48968 10.2123 5.83132L8.53224 7.05198C8.32195 7.20477 8.23395 7.47559 8.31428 7.7228L8.95602 9.69788C9.13563 10.2507 8.50294 10.7103 8.03272 10.3687L6.35261 9.14804C6.14232 8.99525 5.85756 8.99525 5.64727 9.14804L3.96717 10.3687C3.49694 10.7103 2.86425 10.2507 3.04386 9.69788L3.68561 7.7228C3.76593 7.47559 3.67794 7.20477 3.46764 7.05198L1.78754 5.83132C1.31731 5.48968 1.55898 4.74591 2.14021 4.74591H4.21693C4.47687 4.74591 4.70724 4.57853 4.78757 4.33132L5.42931 2.35624Z" fill="#6A93FF"/>
<path d="M20.4293 2.35624C20.6089 1.80345 21.391 1.80345 21.5706 2.35624L22.2123 4.33132C22.2926 4.57853 22.523 4.74591 22.783 4.74591H24.8597C25.4409 4.74591 25.6826 5.48968 25.2123 5.83132L23.5322 7.05198C23.3219 7.20477 23.234 7.47559 23.3143 7.7228L23.956 9.69788C24.1356 10.2507 23.5029 10.7103 23.0327 10.3687L21.3526 9.14804C21.1423 8.99525 20.8576 8.99525 20.6473 9.14804L18.9672 10.3687C18.4969 10.7103 17.8643 10.2507 18.0439 9.69788L18.6856 7.7228C18.7659 7.47559 18.6779 7.20477 18.4676 7.05198L16.7875 5.83132C16.3173 5.48968 16.559 4.74591 17.1402 4.74591H19.2169C19.4769 4.74591 19.7072 4.57853 19.7876 4.33132L20.4293 2.35624Z" fill="#6A93FF"/>
<path d="M35.4293 2.35624C35.6089 1.80345 36.391 1.80345 36.5706 2.35624L37.2123 4.33132C37.2926 4.57853 37.523 4.74591 37.783 4.74591H39.8597C40.4409 4.74591 40.6826 5.48968 40.2123 5.83132L38.5322 7.05198C38.3219 7.20477 38.234 7.47559 38.3143 7.7228L38.956 9.69788C39.1356 10.2507 38.5029 10.7103 38.0327 10.3687L36.3526 9.14804C36.1423 8.99525 35.8576 8.99525 35.6473 9.14804L33.9672 10.3687C33.4969 10.7103 32.8643 10.2507 33.0439 9.69788L33.6856 7.7228C33.7659 7.47559 33.6779 7.20477 33.4676 7.05198L31.7875 5.83132C31.3173 5.48968 31.559 4.74591 32.1402 4.74591H34.2169C34.4769 4.74591 34.7072 4.57853 34.7876 4.33132L35.4293 2.35624Z" fill="#6A93FF"/>
<path d="M50.4293 2.35624C50.6089 1.80345 51.391 1.80345 51.5706 2.35624L52.2123 4.33132C52.2926 4.57853 52.523 4.74591 52.783 4.74591H54.8597C55.4409 4.74591 55.6826 5.48968 55.2123 5.83132L53.5322 7.05198C53.3219 7.20477 53.234 7.47559 53.3143 7.7228L53.956 9.69788C54.1356 10.2507 53.5029 10.7103 53.0327 10.3687L51.3526 9.14804C51.1423 8.99525 50.8576 8.99525 50.6473 9.14804L48.9672 10.3687C48.4969 10.7103 47.8643 10.2507 48.0439 9.69788L48.6856 7.7228C48.7659 7.47559 48.6779 7.20477 48.4676 7.05198L46.7875 5.83132C46.3173 5.48968 46.559 4.74591 47.1402 4.74591H49.2169C49.4769 4.74591 49.7072 4.57853 49.7876 4.33132L50.4293 2.35624Z" fill="#6A93FF"/>
<path d="M65.4293 2.35624C65.6089 1.80345 66.391 1.80345 66.5706 2.35624L67.2123 4.33132C67.2926 4.57853 67.523 4.74591 67.783 4.74591H69.8597C70.4409 4.74591 70.6826 5.48968 70.2123 5.83132L68.5322 7.05198C68.3219 7.20477 68.234 7.47559 68.3143 7.7228L68.956 9.69788C69.1356 10.2507 68.5029 10.7103 68.0327 10.3687L66.3526 9.14804C66.1423 8.99525 65.8576 8.99525 65.6473 9.14804L63.9672 10.3687C63.4969 10.7103 62.8643 10.2507 63.0439 9.69788L63.6856 7.7228C63.7659 7.47559 63.6779 7.20477 63.4676 7.05198L61.7875 5.83132C61.3173 5.48968 61.559 4.74591 62.1402 4.74591H64.2169C64.4769 4.74591 64.7072 4.57853 64.7876 4.33132L65.4293 2.35624Z" fill="#C4DBFF"/>
</svg>
